<?xml version="1.0" encoding="utf-8"?>
<!-- Generator: Adobe Illustrator 22.0.1, SVG Export Plug-In . SVG Version: 6.00 Build 0)  -->
<svg version="1.1" id="Default" xmlns="http://www.w3.org/2000/svg" xmlns:xlink="http://www.w3.org/1999/xlink" x="0px" y="0px"
	 viewBox="0 0 93 93" style="enable-background:new 0 0 93 93;" xml:space="preserve">
<style type="text/css">
	.st0{fill:#FFFFFF;}
</style>
<title>Artboard 6</title>
<path class="st0" d="M0,0v93h93V0H0z M50.9,9h22.2c5.6,0,10.2,4.6,10.2,10.2s-4.6,10.2-10.2,10.2c0,0,0,0,0,0l8.5,13.6H50.9V9z
	 M10,84V49.9L44.1,84H10z M44.1,64.7L29.3,49.9h14.8L44.1,64.7z M44.1,34.5c0,4.7-3.8,8.5-8.5,8.5H10V9h25.6
	c4.7,0.2,8.4,4.1,8.2,8.8c-0.2,4.5-3.8,8.1-8.2,8.2C40.3,26,44.1,29.9,44.1,34.5L44.1,34.5z M68,84H50.9V49.9H68
	c9.4,0.2,16.9,8,16.6,17.5C84.4,76.5,77.1,83.8,68,84z"/>
</svg>
